<?xml version="1.0" standalone="no"?><!DOCTYPE svg PUBLIC "-//W3C//DTD SVG 1.1//EN" "http://www.w3.org/Graphics/SVG/1.1/DTD/svg11.dtd"><svg t="1594041674911" class="icon" viewBox="0 0 1024 1024" version="1.1" xmlns="http://www.w3.org/2000/svg" p-id="1504" width="16" height="16" xmlns:xlink="http://www.w3.org/1999/xlink"><defs><style type="text/css"></style></defs><path d="M743.687265 738.939324L970.483332 965.755856c9.127508 9.127508 9.127508 23.94436 0 33.071868l-16.535934 16.556399c-9.127508 9.127508-23.94436 9.127508-33.071868 0L689.147334 783.635462a423.555264 423.555264 0 0 1-241.428731 75.066593c-235.064034-0.020465-425.595651-190.572548-425.595652-425.616117S212.654569 7.531218 447.718603 7.531218c235.043569 0 425.575186 190.531617 425.575185 425.595651 0 120.028779-49.689663 228.433288-129.626988 305.812455h0.020465zM447.718603 788.526661c196.282357 0 355.399792-159.117435 355.399792-355.399792 0-196.302822-159.117435-355.420257-355.399792-355.420258-196.302822 0-355.420257 159.117435-355.420258 355.420258 0 196.282357 159.117435 355.399792 355.420258 355.399792z m0 0" p-id="1505" fill="#13227a"></path></svg>